PathFileType	4	(X/Y/Z)	/Users/nbianco/Projects/AddBiomechanics/hamner/residuals/addbio/results/subject01/results/MarkerData/run200.trc
DataRate	CameraRate	NumFrames	NumMarkers	Units	OrigDataRate	OrigDataStartFrame	OrigNumFrames
100	100	8	42	m	100	58	233
Frame#	Time	C7			CLAV			LACR			LASI			LCAL			LFAradius			LFAsuperior			LFAulna			LLEL			LMEL			LMT5			LPSI			LTB1			LTB2			LTB3			LTH1			LTH2			LTH3			LTOE			LUA1			LUA2			LUA3			RACR			RASI			RCAL			RFAradius			RFAsuperior			RFAulna			RLEL			RMEL			RMT5			RPSI			RTB1			RTB2			RTB3			RTH1			RTH2			RTH3			RTOE			RUA1			RUA2			RUA3		
		X1	Y1	Z1	X2	Y2	Z2	X3	Y3	Z3	X4	Y4	Z4	X5	Y5	Z5	X6	Y6	Z6	X7	Y7	Z7	X8	Y8	Z8	X9	Y9	Z9	X10	Y10	Z10	X11	Y11	Z11	X12	Y12	Z12	X13	Y13	Z13	X14	Y14	Z14	X15	Y15	Z15	X16	Y16	Z16	X17	Y17	Z17	X18	Y18	Z18	X19	Y19	Z19	X20	Y20	Z20	X21	Y21	Z21	X22	Y22	Z22	X23	Y23	Z23	X24	Y24	Z24	X25	Y25	Z25	X26	Y26	Z26	X27	Y27	Z27	X28	Y28	Z28	X29	Y29	Z29	X30	Y30	Z30	X31	Y31	Z31	X32	Y32	Z32	X33	Y33	Z33	X34	Y34	Z34	X35	Y35	Z35	X36	Y36	Z36	X37	Y37	Z37	X38	Y38	Z38	X39	Y39	Z39	X40	Y40	Z40	X41	Y41	Z41	X42	Y42	Z42

59	0.78	0.99145	1.53459	-0.368555	1.10364	1.45465	-0.330703	1.04273	1.50136	-0.529081	1.07073	1.00878	-0.476701	0.73574	0.111497	-0.363626	1.15423	1.13264	-0.534755	0.984761	1.12092	-0.623327	1.1486	1.0696	-0.56873	0.914492	1.16908	-0.630626	0.901139	1.15335	-0.54213	0.920794	0.0373638	-0.444236	0.89373	1.08407	-0.420782	1.03298	0.38343	-0.397386	0.916719	0.312765	-0.451725	0.914326	0.19883	-0.384916	1.00437	0.895688	-0.534755	0.946016	0.73751	-0.490429	1.01116	0.609132	-0.479276	0.970452	0.0713896	-0.347165	0.95496	1.39136	-0.584965	0.989271	1.31097	-0.595661	0.925936	1.23548	-0.614101	1.04623	1.48997	-0.200703	1.04669	1.0234	-0.233692	0.732019	0.29584	-0.253415	1.01853	1.03958	-0.11758	0.890042	1.14736	-0.0422973	0.977958	1.01384	-0.0675973	0.822623	1.23546	-0.0543956	0.823796	1.2065	-0.139208	0.847036	0.134222	-0.180748	0.88755	1.07676	-0.307622	1.07303	0.399748	-0.260006	0.986707	0.431924	-0.191554	0.92209	0.299435	-0.260822	0.985887	0.90374	-0.18584	0.988383	0.753698	-0.203506	1.08855	0.625735	-0.202464	0.899176	0.119869	-0.274925	0.920584	1.40915	-0.146458	0.950651	1.34538	-0.112916	0.867856	1.28379	-0.0794806
60	0.79	0.990964	1.53979	-0.368207	1.10238	1.46006	-0.328916	1.04393	1.50717	-0.52795	1.06993	1.01399	-0.476473	0.71733	0.115709	-0.364156	1.15857	1.14827	-0.530094	0.991351	1.12883	-0.620818	1.15599	1.08422	-0.562523	0.919881	1.17384	-0.629869	0.905346	1.15847	-0.541399	0.900642	0.0378042	-0.443886	0.894666	1.0888	-0.421744	1.0158	0.385231	-0.396546	0.899074	0.315733	-0.451148	0.896239	0.201408	-0.384618	1.00291	0.898489	-0.533832	0.938351	0.742354	-0.48934	0.99916	0.611934	-0.477835	0.950909	0.0709136	-0.346669	0.956924	1.39664	-0.584388	0.992866	1.31652	-0.594689	0.931164	1.24005	-0.614035	1.04264	1.49603	-0.199652	1.04581	1.02872	-0.233488	0.750225	0.281205	-0.255417	1.00869	1.05096	-0.116462	0.879411	1.15842	-0.0428265	0.967377	1.02474	-0.0673421	0.812648	1.24646	-0.0554247	0.814464	1.21743	-0.140083	0.874503	0.127918	-0.179869	0.887121	1.08221	-0.308901	1.08519	0.404737	-0.25915	0.99637	0.433243	-0.192384	0.939569	0.296271	-0.26129	0.98512	0.90985	-0.184618	0.990272	0.759909	-0.202436	1.09293	0.633973	-0.201868	0.928725	0.116092	-0.273459	0.915064	1.41732	-0.147859	0.943436	1.35376	-0.1122	0.85923	1.2938	-0.0799461
61	0.8	0.990553	1.54546	-0.367555	1.10126	1.46614	-0.327094	1.04488	1.51345	-0.526608	1.06927	1.01978	-0.476077	0.699371	0.121067	-0.364939	1.16173	1.16447	-0.525697	0.997073	1.13745	-0.618578	1.16214	1.09967	-0.556687	0.924663	1.17946	-0.629301	0.908922	1.16447	-0.540841	0.880553	0.0383379	-0.443702	0.896187	1.09409	-0.422919	0.998707	0.388032	-0.395578	0.881691	0.319586	-0.450744	0.878465	0.204811	-0.384399	1.00164	0.901785	-0.532793	0.930758	0.748078	-0.488252	0.987134	0.615629	-0.476323	0.931604	0.0708248	-0.346906	0.958749	1.40262	-0.583688	0.996058	1.32285	-0.593854	0.935909	1.24555	-0.614209	1.03938	1.50243	-0.198541	1.04508	1.03461	-0.233115	0.769544	0.265703	-0.258091	0.999485	1.0629	-0.115571	0.869102	1.16973	-0.0436972	0.957621	1.0362	-0.0672262	0.803035	1.25774	-0.0568864	0.805371	1.2287	-0.141332	0.902705	0.121613	-0.179284	0.886877	1.088	-0.310416	1.09657	0.409969	-0.258211	1.00526	0.433906	-0.193264	0.956065	0.29234	-0.261755	0.984335	0.916609	-0.183219	0.991742	0.766818	-0.201286	1.09639	0.642556	-0.201145	0.959006	0.112872	-0.271985	0.910018	1.42591	-0.149221	0.936638	1.36251	-0.111681	0.850959	1.30414	-0.0806819
62	0.81	0.990219	1.55145	-0.366738	1.10029	1.47263	-0.325183	1.04578	1.52003	-0.525088	1.06877	1.02601	-0.47554	0.682016	0.127595	-0.366013	1.16369	1.18082	-0.521527	1.00198	1.14663	-0.616696	1.16702	1.11549	-0.551264	0.928751	1.18576	-0.628993	0.911773	1.17119	-0.540534	0.860767	0.0393046	-0.444287	0.898168	1.09977	-0.424114	0.981823	0.39187	-0.394803	0.864653	0.324247	-0.450582	0.861087	0.209085	-0.384403	1.00066	0.905576	-0.531635	0.923495	0.754512	-0.48743	0.975476	0.620163	-0.475067	0.912462	0.0708761	-0.347444	0.960695	1.40926	-0.583181	0.998872	1.32978	-0.593201	0.939821	1.25195	-0.614558	1.03652	1.50899	-0.1974	1.04451	1.04094	-0.232599	0.790093	0.24951	-0.261555	0.990988	1.07503	-0.114846	0.859329	1.18117	-0.0449103	0.948583	1.0479	-0.0672603	0.793911	1.26912	-0.0588726	0.796767	1.24006	-0.143096	0.931472	0.115487	-0.179043	0.88699	1.09436	-0.311513	1.10711	0.415372	-0.257186	1.01335	0.433844	-0.194089	0.972254	0.287784	-0.262164	0.983609	0.923937	-0.181726	0.992733	0.774278	-0.200204	1.09871	0.651263	-0.200508	0.989962	0.110295	-0.270712	0.905515	1.43465	-0.150677	0.930367	1.37144	-0.111405	0.843175	1.31467	-0.0817704
63	0.82	0.989956	1.55767	-0.365825	1.09943	1.47928	-0.323149	1.04676	1.5269	-0.523443	1.06849	1.03253	-0.474911	0.665495	0.135282	-0.367325	1.16455	1.19693	-0.517586	1.00616	1.15626	-0.615233	1.17076	1.13126	-0.546363	0.932169	1.19266	-0.629058	0.913994	1.17844	-0.540638	0.841405	0.0408096	-0.445632	0.900143	1.1057	-0.424993	0.965404	0.396634	-0.394645	0.848055	0.329631	-0.4507	0.844284	0.214209	-0.384786	1	0.909809	-0.530394	0.916764	0.761396	-0.486961	0.964405	0.625408	-0.474266	0.893456	0.0706619	-0.347741	0.962753	1.41639	-0.582896	1.00134	1.33715	-0.592753	0.942831	1.25912	-0.615068	1.03413	1.51559	-0.196237	1.04416	1.04756	-0.231994	0.811922	0.232854	-0.265804	0.983243	1.08706	-0.114274	0.850243	1.19259	-0.046437	0.940176	1.05957	-0.0675005	0.785395	1.28048	-0.0613591	0.789055	1.25127	-0.145485	0.960636	0.109735	-0.179172	0.887572	1.1016	-0.311647	1.11675	0.420715	-0.255983	1.02066	0.433046	-0.194817	0.989004	0.283092	-0.262618	0.982937	0.931692	-0.180255	0.993219	0.782004	-0.199331	1.09974	0.659822	-0.200112	1.02141	0.108444	-0.269718	0.901596	1.44344	-0.152143	0.924722	1.3804	-0.111364	0.835995	1.32528	-0.0832422
64	0.83	0.989759	1.56397	-0.364802	1.09867	1.48592	-0.32104	1.04786	1.534	-0.521738	1.06848	1.03919	-0.4742	0.649992	0.144006	-0.368774	1.16445	1.21245	-0.513881	1.00968	1.16616	-0.614221	1.17352	1.14667	-0.542054	0.935011	1.20007	-0.629579	0.915779	1.186	-0.541309	0.82229	0.0424582	-0.446886	0.901776	1.11175	-0.425384	0.94978	0.402065	-0.395297	0.832107	0.335655	-0.451158	0.828283	0.220041	-0.38563	0.999646	0.914361	-0.529145	0.910672	0.76849	-0.486756	0.953971	0.631204	-0.473936	0.87463	0.069979	-0.347692	0.964789	1.42381	-0.582704	1.00353	1.34482	-0.592498	0.945089	1.26688	-0.615774	1.03226	1.5221	-0.195064	1.04409	1.05432	-0.231311	0.834934	0.216029	-0.270585	0.976263	1.09874	-0.113804	0.841915	1.20383	-0.0481993	0.932353	1.07098	-0.0679969	0.777622	1.29174	-0.064165	0.78257	1.26221	-0.148439	0.990118	0.104577	-0.17966	0.888558	1.10954	-0.311022	1.12541	0.425691	-0.25455	1.02733	0.43142	-0.195427	1.00684	0.278716	-0.263298	0.982284	0.939646	-0.178872	0.993196	0.789591	-0.198802	1.09943	0.667885	-0.199923	1.05304	0.107504	-0.268991	0.898288	1.45228	-0.153348	0.919773	1.38923	-0.111503	0.82952	1.33587	-0.0850263
65	0.84	0.989655	1.57021	-0.363651	1.09799	1.4924	-0.318974	1.04905	1.54117	-0.520015	1.06877	1.04585	-0.473394	0.635583	0.153538	-0.370284	1.16355	1.22718	-0.510409	1.01257	1.17607	-0.613627	1.17538	1.16148	-0.538202	0.937371	1.20791	-0.630543	0.917265	1.1937	-0.542571	0.8031	0.0436926	-0.447093	0.903175	1.11776	-0.425447	0.935186	0.407892	-0.396659	0.817046	0.342245	-0.452023	0.813272	0.226359	-0.386908	0.999529	0.919085	-0.527974	0.905265	0.775666	-0.48668	0.944204	0.6374	-0.473982	0.856037	0.0689468	-0.347581	0.966665	1.43133	-0.582459	1.00545	1.35261	-0.592395	0.946792	1.27497	-0.616688	1.03088	1.52841	-0.193916	1.04431	1.06109	-0.230533	0.858883	0.199365	-0.275397	0.970058	1.10993	-0.113345	0.834384	1.21471	-0.0500969	0.925135	1.0819	-0.0687485	0.770704	1.30279	-0.0670671	0.77732	1.27281	-0.151712	1.01989	0.100194	-0.180546	0.889726	1.11729	-0.31053	1.13302	0.430043	-0.253051	1.03362	0.428792	-0.19589	1.02549	0.274783	-0.264332	0.981682	0.947518	-0.177554	0.99264	0.796645	-0.198674	1.09778	0.675066	-0.199765	1.08441	0.107681	-0.268668	0.895567	1.46109	-0.154156	0.915527	1.39779	-0.111752	0.823803	1.34627	-0.0869856
66	0.85	0.989679	1.57626	-0.362407	1.09746	1.4986	-0.317059	1.05024	1.54815	-0.518261	1.06928	1.05237	-0.472507	0.622242	0.163656	-0.371865	1.16203	1.24101	-0.50722	1.01481	1.18585	-0.613329	1.17637	1.17549	-0.534558	0.939293	1.21597	-0.631842	0.918452	1.2014	-0.544285	0.783729	0.0444255	-0.446162	0.904663	1.12352	-0.425469	0.921678	0.413945	-0.39848	0.803004	0.349314	-0.453291	0.799316	0.232976	-0.388544	0.999621	0.923862	-0.526944	0.900588	0.782875	-0.486691	0.935234	0.643851	-0.474287	0.837679	0.0678864	-0.347686	0.968284	1.43878	-0.582079	1.0071	1.36033	-0.592397	0.948065	1.28318	-0.617789	1.02993	1.53444	-0.19283	1.04475	1.06771	-0.229662	0.883433	0.183213	-0.279648	0.964646	1.12052	-0.112832	0.8277	1.22505	-0.0520425	0.918603	1.09215	-0.0696948	0.764692	1.31341	-0.0699301	0.772983	1.28305	-0.154969	1.04989	0.0966346	-0.181984	0.890836	1.1239	-0.310902	1.13954	0.433672	-0.251832	1.03973	0.425068	-0.196178	1.04411	0.271159	-0.26566	0.981194	0.955038	-0.176216	0.991516	0.802906	-0.198835	1.09484	0.681037	-0.199493	1.11511	0.109039	-0.269085	0.893334	1.46963	-0.154758	0.911924	1.40597	-0.112046	0.818833	1.35629	-0.0889907
